<svg width="26" height="26" viewBox="0 0 26 26" fill="none" xmlns="http://www.w3.org/2000/svg">
<g clip-path="url(#clip0)">
<path d="M21.4749 0.133789H3.68603C1.65399 0.133789 0.000488281 1.78708 0.000488281 3.81886V21.6055C0.000488281 23.6372 1.65399 25.2905 3.68603 25.2905H21.4749C23.507 25.2905 25.1605 23.6372 25.1605 21.6055V3.81886C25.1605 1.78708 23.507 0.133789 21.4749 0.133789ZM12.6296 19.2961C8.97152 19.2961 5.99564 16.3206 5.99564 12.663C5.99564 9.0054 8.97152 6.0299 12.6296 6.0299C16.2877 6.0299 19.2636 9.0054 19.2636 12.663C19.2636 16.3206 16.2877 19.2961 12.6296 19.2961ZM20.0007 7.50393C18.7814 7.50393 17.7894 6.51203 17.7894 5.29289C17.7894 4.07374 18.7814 3.08184 20.0007 3.08184C21.22 3.08184 22.212 4.07374 22.212 5.29289C22.212 6.51203 21.22 7.50393 20.0007 7.50393Z" fill="#839694" fill-opacity="0.5"/>
<path d="M20.0008 4.55664C19.594 4.55664 19.2637 4.887 19.2637 5.29375C19.2637 5.7005 19.594 6.03086 20.0008 6.03086C20.4075 6.03086 20.7379 5.7005 20.7379 5.29375C20.7379 4.887 20.4075 4.55664 20.0008 4.55664Z" fill="#839694" fill-opacity="0.5"/>
<path d="M12.6297 7.50488C9.78495 7.50488 7.46997 9.81957 7.46997 12.664C7.46997 15.5084 9.78495 17.8231 12.6297 17.8231C15.4745 17.8231 17.7895 15.5084 17.7895 12.664C17.7895 9.81957 15.4745 7.50488 12.6297 7.50488Z" fill="#839694" fill-opacity="0.5"/>
</g>
<defs>
<clipPath id="clip0">
<rect x="0.000488281" y="0.133789" width="25.16" height="25.1567" fill="white"/>
</clipPath>
</defs>
</svg>
