<svg width="27" height="27" viewBox="0 0 27 27" fill="none" xmlns="http://www.w3.org/2000/svg">
<g clip-path="url(#clip0)">
<path d="M25.9191 3.38013C25.5993 2.9893 25.1207 2.77393 24.5712 2.77393C24.2721 2.77393 23.9558 2.837 23.6304 2.96116L1.48398 11.4151C0.308704 11.8636 0.150417 12.5366 0.160597 12.8981C0.170776 13.2594 0.366989 13.9225 1.56582 14.3037C1.57301 14.3061 1.58019 14.3081 1.58738 14.3103L4.69324 15.199L19.8193 7.47124C20.1962 7.27842 20.6581 7.42813 20.8507 7.80518C21.002 8.1014 20.9413 8.44951 20.7258 8.67866L20.7264 8.67926L12.3162 17.6154L12.0763 18.5877L15.0795 21.0061L19.2413 24.3573C19.2449 24.3601 19.2485 24.3631 19.2523 24.3659C19.7102 24.7212 20.2104 24.9088 20.6988 24.909C21.6533 24.909 22.4132 24.2026 22.6346 23.1095L26.2632 5.19215C26.4087 4.47317 26.2866 3.82944 25.9191 3.38013Z" fill="#839694" fill-opacity="0.5"/>
<path d="M10.8766 17.0532C10.9071 16.9293 10.9686 16.8111 11.0622 16.7115L16.5807 10.8477L6.34033 16.0793L8.66555 22.7292C8.79808 23.1081 8.9953 23.4306 9.23921 23.6831L10.8762 17.053L10.8766 17.0532Z" fill="#839694" fill-opacity="0.5"/>
<path d="M10.6665 24.2988C11.2192 24.2942 11.7623 24.061 12.2382 23.6229L13.9394 22.0564L11.6711 20.23L10.6665 24.2988Z" fill="#839694" fill-opacity="0.5"/>
</g>
<defs>
<clipPath id="clip0">
<rect x="0.1604" y="0.78125" width="26.1628" height="26.1628" fill="white"/>
</clipPath>
</defs>
</svg>
